:SAMPLES-PER-SECOND 30
:FULLY-SPECIFIED
:DEGREES
1
root  -31.6815 41.2481 1.10582 -120.913 -89.1658 118.421
RightUpLeg  0.450332 -8.24307 -4.9878
RightLeg  6.90166 -5.15151 3.19214
RightFoot  -4.20324 0.0216522 -0.868244
RightToes  2.91037e-010 0 -3.6325e-017
Spine  4.93411 0.841992 -0.724736
Spine1  1.56753 1.10219 -0.85445
HEad  0.858206 -4.36317 2.46771
LeftShoulder1  1.79398 -5.58727 -12.6508
LeftArm  -18.2055 17.5715 -7.88084
LeftForeArm  17.9253 -4.45544 -0.646279
LeftHand  -0.244104 0.0205437 5.32207
RightShoulder  0.993062 2.0561 10.6502
RightArm  -15.5858 -8.18158 2.96884
RightForeArm  5.30009 5.40407 3.88489
RightHand  -0.975768 1.45784 -16.6224
LeftUpLeg  0.626841 4.02221 0.518138
LeftLeg  3.37703 12.5223 -3.67425
LeftFoot  -2.35381 -0.189722 2.65548
LeftToes  -1.10052e-010 1.3781e-010 -2.1811e-011
2
root  -31.6672 41.2481 1.11233 -122.3 -89.1511 119.823
RightUpLeg  0.419801 -8.24201 -4.99064
RightLeg  6.87729 -5.1529 3.19318
RightFoot  -4.16873 0.0214647 -0.865331
RightToes  2.91037e-010 0 -3.6325e-017
Spine  4.91491 0.832218 -0.707134
Spine1  1.56302 1.10219 -0.875372
HEad  0.984237 -4.49491 2.47581
LeftShoulder1  1.79894 -5.60727 -12.6633
LeftArm  -18.1917 17.5691 -7.87816
LeftForeArm  17.8221 -4.43167 -0.651663
LeftHand  -0.244104 0.0205437 5.32207
RightShoulder  0.984096 2.01431 10.6198
RightArm  -15.593 -8.15239 3.01323
RightForeArm  5.05711 5.46827 3.91478
RightHand  -0.981161 1.46758 -16.6894
LeftUpLeg  0.594708 4.00982 0.500178
LeftLeg  3.36294 12.5663 -3.67547
LeftFoot  -2.33168 -0.192466 2.69819
LeftToes  -1.10052e-010 1.3781e-010 -2.1811e-011
3
root  -31.6413 41.2481 1.12529 -125.521 -89.1157 123.032
RightUpLeg  0.382874 -8.24267 -5.00517
RightLeg  6.87346 -5.10585 3.19282
RightFoot  -4.11895 0.0207011 -0.853466
RightToes  2.91037e-010 0 -3.6325e-017
Spine  4.88427 0.817828 -0.661224
Spine1  1.60418 1.10219 -0.922634
HEad  1.10149 -4.53552 2.47302
LeftShoulder1  1.81014 -5.6477 -12.7024
LeftArm  -18.1773 17.5497 -7.87074
LeftForeArm  17.6575 -4.34169 -0.65
LeftHand  -0.244104 0.0205437 5.32207
RightShoulder  0.982718 2.00865 10.6123
RightArm  -15.6338 -8.10454 3.02857
RightForeArm  4.84543 5.4514 3.92175
RightHand  -0.993809 1.51571 -16.787
LeftUpLeg  0.571262 3.99664 0.471837
LeftLeg  3.35578 12.6491 -3.67504
LeftFoot  -2.30628 -0.19653 2.76141
LeftToes  -1.10052e-010 1.3781e-010 -2.1811e-011
4
root  -31.6154 41.2475 1.13784 -130.018 -89.0526 127.464
RightUpLeg  0.376475 -8.26005 -5.03609
RightLeg  6.91709 -4.98408 3.19141
RightFoot  -4.0953 0.0200566 -0.843452
RightToes  2.91037e-010 0 -3.6325e-017
Spine  4.87887 0.81363 -0.626513
Spine1  1.70856 1.10219 -0.961572
HEad  1.10892 -4.39896 2.4851
LeftShoulder1  1.81594 -5.66241 -12.7373
LeftArm  -18.1628 17.5411 -7.86644
LeftForeArm  17.5709 -4.27513 -0.648654
LeftHand  -0.244104 0.0205437 5.32207
RightShoulder  0.993236 2.05487 10.6581
RightArm  -15.6923 -8.05947 2.96374
RightForeArm  4.7891 5.39614 3.90274
RightHand  -0.999292 1.53135 -16.8321
LeftUpLeg  0.605696 3.98965 0.443704
LeftLeg  3.36081 12.7581 -3.66957
LeftFoot  -2.2995 -0.198171 2.78696
LeftToes  -1.10052e-010 1.3781e-010 -2.1811e-011
5
root  -31.5932 41.2451 1.14747 -133.779 -88.9977 131.118
RightUpLeg  0.42706 -8.28672 -5.06833
RightLeg  6.95521 -4.86034 3.19989
RightFoot  -4.08804 0.0206983 -0.853423
RightToes  2.91037e-010 0 -3.6325e-017
Spine  4.92658 0.811569 -0.615191
Spine1  1.823 1.09959 -0.972861
HEad  1.11367 -4.26005 2.55716
LeftShoulder1  1.8093 -5.63684 -12.718
LeftArm  -18.1243 17.5741 -7.89511
LeftForeArm  17.5572 -4.30868 -0.669314
LeftHand  -0.244104 0.0205437 5.32207
RightShoulder  0.99387 2.0529 10.6778
RightArm  -15.7047 -7.99387 2.91735
RightForeArm  4.77959 5.3912 3.90392
RightHand  -0.998317 1.50685 -16.8201
LeftUpLeg  0.690145 3.98825 0.430281
LeftLeg  3.37196 12.8458 -3.65614
LeftFoot  -2.31606 -0.196747 2.76479
LeftToes  -1.10052e-010 1.3781e-010 -2.1811e-011
